<?xml version="1.0" encoding="UTF-8" standalone="no"?>
<!-- Created with Inkscape (http://www.inkscape.org/) -->

<svg
   width="182.53197mm"
   height="96.497314mm"
   viewBox="0 0 182.53197 96.497314"
   version="1.1"
   id="svg5"
   xml:space="preserve"
   xmlns="http://www.w3.org/2000/svg"
   xmlns:svg="http://www.w3.org/2000/svg"><defs
     id="defs2" /><g
     id="layer1"
     transform="translate(-18.569975,-123.75634)"><g
       id="g162"
       transform="matrix(0.26458333,0,0,0.26458333,32.757107,95.500426)"><g
         transform="translate(0,-552.36)"
         id="g134" /><g
         transform="rotate(-16.970255,327.64231,821.31517)"
         id="g146"><g
           transform="matrix(1.3937,0,0,1.3937,-107.14,-99.261)"
           id="g144"><path
             d="m 193.55,140.55 157.12,-4 c 4.0467,-0.10302 9,6.23 9,9 V 349.8 c 0,2.77 -2.23,5 -5,5 H 193.55 c -2.77,0 -9.0769,-5.1516 -9,-9 l 4,-200.25 c 0.0553,-2.7694 2.2309,-4.9295 5,-5 z"
             fill="#f1f1f1"
             id="path136"
             style="fill:#a49dc3;fill-opacity:1" /><path
             d="m 189.55,136.55 h 161.12 c 2.77,0 5,2.23 5,5 V 345.8 c 0,2.77 -2.23,5 -5,5 H 189.55 c -2.77,0 -5,-2.23 -5,-5 V 141.55 c 0,-2.77 2.23,-5 5,-5 z"
             fill="#cb6565"
             id="path138"
             style="fill:#645a92;fill-opacity:1" /><path
             d="M 209.5,136.55 H 228 V 350.8 h -18.5 z"
             fill="#c14a4a"
             id="path140"
             style="fill:#837aad;fill-opacity:1" /><path
             d="m 212.25,352.18 v 15.5 h 0.2207 l 6.2793,-7.25 6.2793,7.25 h 0.2207 v -15.5 z"
             fill="#ed1e1e"
             id="path142"
             style="fill:#8a81b2;fill-opacity:1" /><text
             xml:space="preserve"
             style="font-style:normal;font-variant:normal;font-weight:normal;font-stretch:normal;font-size:293.926px;font-family:'Courier New';-inkscape-font-specification:'Courier New';fill:#ffffff;fill-opacity:1;stroke:#a49dc3;stroke-width:5.78593;stroke-dasharray:none;stroke-opacity:0"
             x="258.56705"
             y="256.74118"
             id="text5064"
             transform="rotate(16.970255)"><tspan
               id="tspan5062"
               style="font-style:normal;font-variant:normal;font-weight:normal;font-stretch:normal;font-family:'Sabila Renytha PERSONAL USE';-inkscape-font-specification:'Sabila Renytha PERSONAL USE';fill:#ffffff;fill-opacity:1;stroke:#a49dc3;stroke-width:5.78593;stroke-opacity:0"
               x="258.56705"
               y="256.74118">Purple</tspan></text></g></g></g></g></svg>
